<svg width="98" height="99" xmlns="http://www.w3.org/2000/svg" xmlns:xlink="http://www.w3.org/1999/xlink" overflow="hidden"><defs><clipPath id="clip0"><path d="M366 102 464 102 464 201 366 201Z" fill-rule="evenodd" clip-rule="evenodd"/></clipPath><clipPath id="clip1"><path d="M384 118 446 118 446 181 384 181Z" fill-rule="evenodd" clip-rule="evenodd"/></clipPath><clipPath id="clip2"><path d="M384 118 446 118 446 181 384 181Z" fill-rule="evenodd" clip-rule="evenodd"/></clipPath><clipPath id="clip3"><path d="M384 118 446 118 446 181 384 181Z" fill-rule="evenodd" clip-rule="evenodd"/></clipPath></defs><g clip-path="url(#clip0)" transform="translate(-366 -102)"><path d="M367 151.5C367 124.714 388.714 103 415.5 103 442.286 103 464 124.714 464 151.5 464 178.286 442.286 200 415.5 200 388.714 200 367 178.286 367 151.5Z" fill="#6A2976" fill-rule="evenodd"/><g clip-path="url(#clip1)"><g clip-path="url(#clip2)"><g clip-path="url(#clip3)"><path d="M7.75 52.3125 7.75 27.125 11.625 27.125 11.625 52.3125C11.625 53.3824 12.4925 54.25 13.5625 54.25L48.4375 54.25C49.5074 54.25 50.375 53.3824 50.375 52.3125L50.375 27.125 54.25 27.125 54.25 52.3125C54.25 55.5225 51.6475 58.125 48.4375 58.125L13.5625 58.125C10.3523 58.125 7.75 55.5225 7.75 52.3125ZM50.375 9.6875 50.375 23.25 42.625 15.5 42.625 9.6875C42.625 8.61746 43.4926 7.75 44.5625 7.75L48.4375 7.75C49.5074 7.75 50.375 8.61746 50.375 9.6875Z" stroke="#FFFFFF" stroke-width="2" fill="#FFFFFF" fill-rule="evenodd" transform="matrix(1 0 -0 1.01613 384 118)"/><path d="M28.2604 5.8125C29.7736 4.29978 32.2264 4.29978 33.7396 5.8125L59.4967 31.5658C60.2543 32.3233 60.2543 33.5517 59.4967 34.3092 58.7392 35.0669 57.5108 35.0669 56.7533 34.3092L31 8.55212 5.24675 34.3092C4.48915 35.0669 3.26085 35.0669 2.50325 34.3092 1.74565 33.5517 1.74565 32.3233 2.50325 31.5658L28.2604 5.8125Z" stroke="#FFFFFF" stroke-width="2" fill="#FFFFFF" fill-rule="evenodd" transform="matrix(1 0 -0 1.01613 384 118)"/></g></g></g></g></svg>